HIERARCHY
ROOT Hips
{
	OFFSET 0.000000 0.000000 0.000000
	CHANNELS 6 Xposition Yposition Zposition Xrotation Yrotation Zrotation
	JOINT LeftUpLeg_virtual
	{
		OFFSET 0.000000 0.000000 0.000000
		CHANNELS 3 Xrotation Yrotation Zrotation
		JOINT LeftUpLeg
		{
			OFFSET 11.394100 -6.187798 -0.413800
			CHANNELS 3 Xrotation Yrotation Zrotation
			JOINT LeftLeg
			{
				OFFSET 0.430247 -32.302673 3.732800
				CHANNELS 3 Xrotation Yrotation Zrotation
				JOINT LeftFoot
				{
					OFFSET -0.430247 -48.264931 -6.423300
					CHANNELS 3 Xrotation Yrotation Zrotation
					JOINT LeftToeBase
					{
						OFFSET 4.230900 -16.068199 23.438400
						CHANNELS 3 Xrotation Yrotation Zrotation
						JOINT LeftToe_End
						{
							OFFSET 4.510700 0.695400 19.974600
							CHANNELS 3 Xrotation Yrotation Zrotation
							End Site
							{
								OFFSET 0 0 0
							}
						}
					}
				}
			}
		}
	}
	JOINT RightUpLeg_virtual
	{
		OFFSET 0.000000 0.000000 0.000000
		CHANNELS 3 Xrotation Yrotation Zrotation
		JOINT RightUpLeg
		{
			OFFSET -11.333700 -6.187798 -0.413800
			CHANNELS 3 Xrotation Yrotation Zrotation
			JOINT RightLeg
			{
				OFFSET -0.430392 -32.302628 3.733000
				CHANNELS 3 Xrotation Yrotation Zrotation
				JOINT RightFoot
				{
					OFFSET 0.430392 -48.264973 -6.423500
					CHANNELS 3 Xrotation Yrotation Zrotation
					JOINT RightToeBase
					{
						OFFSET -4.230900 -16.068199 23.438400
						CHANNELS 3 Xrotation Yrotation Zrotation
						JOINT RightToe_End
						{
							OFFSET -4.510700 0.695400 19.974600
							CHANNELS 3 Xrotation Yrotation Zrotation
							End Site
							{
								OFFSET 0 0 0
							}
						}
					}
				}
			}
		}
	}
	JOINT Spine_virtual
	{
		OFFSET 0.000000 0.000000 0.000000
		CHANNELS 3 Xrotation Yrotation Zrotation
		JOINT Spine
		{
			OFFSET -0.002400 12.777504 0.315300
			CHANNELS 3 Xrotation Yrotation Zrotation
			JOINT Spine1
			{
				OFFSET -0.002067 5.816869 0.032633
				CHANNELS 3 Xrotation Yrotation Zrotation
				JOINT Spine1_split
				{
					OFFSET -0.002067 5.816869 0.032633
					CHANNELS 3 Xrotation Yrotation Zrotation
					JOINT Spine2
					{
						OFFSET -0.002067 5.816869 0.032633
						CHANNELS 3 Xrotation Yrotation Zrotation
						JOINT Neck_virtual
						{
							OFFSET 0.000000 0.000000 0.000000
							CHANNELS 3 Xrotation Yrotation Zrotation
							JOINT Neck
							{
								OFFSET -0.003700 21.199493 -0.826900
								CHANNELS 3 Xrotation Yrotation Zrotation
								JOINT Head
								{
									OFFSET 0.000000 20.442200 4.834800
									CHANNELS 3 Xrotation Yrotation Zrotation
									JOINT HeadTop_End
									{
										OFFSET 0.000000 34.668396 4.968400
										CHANNELS 3 Xrotation Yrotation Zrotation
										End Site
										{
											OFFSET 0 0 0
										}
									}
								}
							}
						}
						JOINT LeftShoulder_virtual
						{
							OFFSET 0.000000 0.000000 0.000000
							CHANNELS 3 Xrotation Yrotation Zrotation
							JOINT LeftShoulder
							{
								OFFSET 3.288150 8.794197 -1.372250
								CHANNELS 3 Xrotation Yrotation Zrotation
								JOINT LeftShoulder_split
								{
									OFFSET 3.288150 8.794197 -1.372250
									CHANNELS 3 Xrotation Yrotation Zrotation
									JOINT LeftArm
									{
										OFFSET 11.953299 -2.279007 -0.146200
										CHANNELS 3 Xrotation Yrotation Zrotation
										JOINT LeftForeArm
										{
											OFFSET 18.448900 0.000000 0.000000
											CHANNELS 3 Xrotation Yrotation Zrotation
											JOINT LeftHand
											{
												OFFSET 29.527798 0.000000 0.000000
												CHANNELS 3 Xrotation Yrotation Zrotation
												End Site
												{
													OFFSET 0 0 0
												}
											}
										}
									}
								}
							}
						}
						JOINT RightShoulder_virtual
						{
							OFFSET 0.000000 0.000000 0.000000
							CHANNELS 3 Xrotation Yrotation Zrotation
							JOINT RightShoulder
							{
								OFFSET -3.249400 8.794197 -1.372250
								CHANNELS 3 Xrotation Yrotation Zrotation
								JOINT RightShoulder_split
								{
									OFFSET -3.249400 8.794197 -1.372250
									CHANNELS 3 Xrotation Yrotation Zrotation
									JOINT RightArm
									{
										OFFSET -11.953299 -2.279007 -0.146200
										CHANNELS 3 Xrotation Yrotation Zrotation
										JOINT RightForeArm
										{
											OFFSET -18.448900 0.000000 0.000000
											CHANNELS 3 Xrotation Yrotation Zrotation
											JOINT RightHand
											{
												OFFSET -29.527802 0.000000 0.000000
												CHANNELS 3 Xrotation Yrotation Zrotation
												End Site
												{
													OFFSET 0 0 0
												}
											}
										}
									}
								}
							}
						}
					}
				}
			}
		}
	}
}
MOTION
Frames: 5
Frame Time: 0.03333333
-0.772332 98.195221 -0.459288 0.000000 0.000000 0.000000 -6.782460 5.349324 -0.809957 -27.697539 10.082200 14.084506 33.678508 2.154479 4.148131 2.922565 -13.229469 -6.335619 -3.489034 0.258341 0.011420 0.000000 0.000000 0.000000 -6.991855 7.346044 -0.800918 0.143887 -10.518169 1.793551 19.119895 -9.428778 -5.420686 -7.722909 -15.855307 5.758835 -5.647245 -0.188464 -0.039046 0.000000 0.000000 0.000000 -7.084034 5.298191 -1.091933 4.085195 0.248018 3.032216 1.361785 0.328433 2.988164 0.738159 -0.572050 -0.181755 0.000000 0.000000 0.000000 1.049883 0.681494 2.923055 11.377857 -2.046923 -1.125351 3.603979 -10.064251 -7.252407 0.000000 0.000000 0.000000 0.747353 0.685148 2.749865 1.705235 -15.787127 -12.287696 -0.506750 0.187345 -2.395992 6.012575 -3.461341 -69.342792 -1.613774 0.439434 0.200608 0.000000 0.000000 0.000000 0.906596 0.578676 2.997140 2.584509 8.949275 18.495082 -0.236012 2.812374 -1.062163 26.026820 7.870342 59.418534 1.016621 7.186699 0.735865 0.000000 0.000000 0.000000 
-0.672732 98.368774 -0.403490 0.000000 0.000000 0.000000 -6.400282 4.787082 -0.826071 -27.534120 10.345732 13.989732 33.125174 1.877619 4.112690 2.885258 -12.209481 -6.327358 -3.406715 0.250871 -0.008303 0.000000 0.000000 0.000000 -6.617659 6.710459 -0.839239 -0.567778 -10.493140 1.551044 18.934201 -9.457175 -5.387981 -7.264494 -15.160744 5.707474 -5.685146 -0.145717 -0.035674 0.000000 0.000000 0.000000 -6.639519 4.783764 -1.106213 3.990140 0.111219 3.022141 1.408151 0.196850 2.976244 0.759253 -0.553510 -0.190547 0.000000 0.000000 0.000000 1.127047 0.529291 2.909960 11.077012 -1.767847 -1.048829 2.733078 -8.809079 -6.703240 0.000000 0.000000 0.000000 0.754637 0.530136 2.705384 1.683134 -16.063102 -12.576643 -0.554579 0.337235 -2.210706 6.350949 -2.378897 -69.519687 -1.569335 0.714485 0.341280 0.000000 0.000000 0.000000 0.992288 0.430619 3.007856 2.655909 8.229418 18.303150 -0.563665 2.688463 -1.215197 28.239865 7.993109 58.546852 1.088473 7.142771 0.631588 0.000000 0.000000 0.000000 
-0.571019 98.549515 -0.378624 0.000000 0.000000 0.000000 -6.026398 3.994668 -0.902274 -27.268420 10.589627 13.953726 32.606070 1.632519 4.044097 2.688617 -10.958264 -6.366760 -3.309293 0.244031 -0.040972 0.000000 0.000000 0.000000 -6.245038 5.863563 -0.928901 -1.395497 -10.504564 1.280481 18.726231 -9.456794 -5.316653 -6.756007 -14.199445 5.640709 -5.680546 -0.108614 -0.011003 0.000000 0.000000 0.000000 -6.197747 4.053368 -1.177565 3.933548 0.020763 3.017499 1.485962 0.098516 2.977921 0.798099 -0.419671 -0.176572 0.000000 0.000000 0.000000 1.200973 0.405775 2.918627 10.729685 -1.484872 -0.951421 1.856345 -7.504890 -6.141440 0.000000 0.000000 0.000000 0.767494 0.408809 2.666583 1.665518 -16.277912 -12.784274 -0.692814 0.555300 -2.053111 6.665339 -1.506956 -69.789118 -1.546022 0.990214 0.435984 0.000000 0.000000 0.000000 1.079224 0.319667 3.029088 2.706082 7.785156 18.155573 -0.910603 2.469518 -1.281501 28.939727 7.458016 57.981394 1.038359 6.587738 0.644261 0.000000 0.000000 0.000000 
-0.476483 98.729530 -0.388859 0.000000 0.000000 0.000000 -5.663399 3.050282 -1.030644 -26.938901 10.779086 13.958019 32.130330 1.400098 3.960132 2.347618 -9.544601 -6.448451 -3.235002 0.237185 -0.083315 0.000000 0.000000 0.000000 -5.878850 4.874661 -1.064185 -2.294294 -10.543676 0.997030 18.490232 -9.443026 -5.211776 -6.196595 -13.022767 5.559254 -5.631661 -0.083953 0.030687 0.000000 0.000000 0.000000 -5.776623 3.138518 -1.308397 3.904823 -0.026861 3.018527 1.593447 0.029812 2.988478 0.821572 -0.236437 -0.147297 0.000000 0.000000 0.000000 1.272894 0.316322 2.942842 10.325178 -1.205466 -0.827948 0.980003 -6.176485 -5.568226 0.000000 0.000000 0.000000 0.791972 0.322467 2.636304 1.661852 -16.428811 -12.871748 -0.879757 0.717928 -1.918338 7.042130 -1.010678 -70.101059 -1.545590 1.154155 0.460295 0.000000 0.000000 0.000000 1.152187 0.249120 3.058985 2.730354 7.613255 18.089080 -1.124274 2.208306 -1.299901 28.202059 6.540430 57.736627 0.951879 5.764264 0.737435 0.000000 0.000000 0.000000 
-0.392840 98.912842 -0.417074 0.000000 0.000000 0.000000 -5.311423 2.014474 -1.196373 -26.553523 10.920760 13.985846 31.675129 1.157046 3.877112 1.921664 -8.069139 -6.566569 -3.214588 0.229746 -0.116731 0.000000 0.000000 0.000000 -5.524939 3.784607 -1.232942 -3.231112 -10.601320 0.711541 18.226121 -9.423632 -5.082403 -5.589277 -11.705300 5.486762 -5.609108 -0.076905 0.078535 0.000000 0.000000 0.000000 -5.395081 2.099572 -1.484035 3.894742 -0.046970 3.022826 1.721460 -0.021146 2.997686 0.830734 -0.085083 -0.135589 0.000000 0.000000 0.000000 1.343840 0.255459 2.968447 9.893593 -0.939552 -0.673527 0.146112 -4.864404 -4.985759 0.000000 0.000000 0.000000 0.835402 0.264071 2.614290 1.685484 -16.507707 -12.831988 -1.092376 0.762898 -1.812624 7.492466 -0.950783 -70.407427 -1.579331 1.135598 0.417943 0.000000 0.000000 0.000000 1.220942 0.207808 3.080709 2.718670 7.622191 18.055511 -1.111363 1.982655 -1.278377 26.472579 5.696033 57.645301 0.877778 5.158440 0.857003 0.000000 0.000000 0.000000 
